<svg width="166" height="32" xmlns="http://www.w3.org/2000/svg"><g fill="#FF8000" fill-rule="evenodd"><path d="M15.117 2.298a1.503 1.503 0 011.796 0 56.974 56.974 0 013.992 2.78s.3.199.4-.199a4.08 4.08 0 01.1-1.489.748.748 0 01.698-.496s1.497.099 2.495.198a.995.995 0 01.798.894s.599 4.17.798 5.66c.21.787.622 1.506 1.198 2.084a41.683 41.683 0 012.495 3.774s.499 1.092-.599 1.191c0 0-2.096.199-2.295.298a.557.557 0 00-.5.596s-.099 7.248-.598 10.822c0 0-.1 1.39-.898 1.39 0 0-2.096-.099-2.595-.099 0 0-.2 0-.2-.298 0 0 1.098-11.319.4-17.078a.993.993 0 00-.6-.893s-.498-.199-.997.496a17.9 17.9 0 00-3.393 10.227c-.065.767.003 1.54.2 2.284 0 0 .2.298 1.097.397l1.098.198s.2 0 .2.298c0 0-.3 3.376-.3 3.972.015.14-.02.28-.1.397a.581.581 0 01-.399.1H13.92a.49.49 0 01-.299-.1c-.1-.198-.3-4.27-.3-4.865 0-.1.1-.199.2-.298a2.977 2.977 0 001.397-2.184 7.755 7.755 0 000-1.887s.2-6.355.2-7.447c0 0 .1-.298-.4-.397a.38.38 0 00-.498.298s-.3 4.27-.3 5.858c0 0 .1 1.092-.598 1.092 0 0-.699.1-.799-.794 0 0 .1-4.07.2-6.156a.428.428 0 00-.4-.397c-.199-.1-.498.1-.498.397 0 0-.3 3.972-.3 5.957 0 0 .1.993-.698.993 0 0-.699.1-.699-.794 0 0 .2-5.66.2-6.057a.457.457 0 00-.4-.496h-.1c-.199 0-.498.1-.498.397v.1s-.32 6.751-.32 8.737a3.599 3.599 0 001.497 2.88c.114.057.19.17.2.297 0 0 .2 3.575.3 4.766 0 0 .1.298-.2.298l-3.793-.199s-.598.1-.798-.695a93.854 93.854 0 01-.698-11.418.557.557 0 00-.5-.596s-1.896-.198-2.395-.298a.824.824 0 01-.598-.993c0-.099.1-.099.1-.198A41.024 41.024 0 0115.116 2.298z"/><g fill-rule="nonzero"><path d="M118.33 16.9a5.37 5.37 0 00-1.6-1 6.82 6.82 0 00-4 0 3.36 3.36 0 00-1.6 1 4.18 4.18 0 00-1.1 1.5 6.94 6.94 0 000 4.5 3.27 3.27 0 001.1 1.5 5.37 5.37 0 001.6 1c1.286.5 2.714.5 4 0a3.36 3.36 0 001.6-1 5.27 5.27 0 001.1-1.5 6.94 6.94 0 000-4.5 4.79 4.79 0 00-1.1-1.5m-1.9 5.8c-.955.9-2.445.9-3.4 0a3.17 3.17 0 01-.6-2 3.38 3.38 0 01.6-2 2.48 2.48 0 013.4 0c.42.58.632 1.285.6 2a3 3 0 01-.6 2M46.53 12.2h-9.8a.43.43 0 00-.4.4v1.8a.43.43 0 00.4.4h3.2a.22.22 0 01.2.2v10.2a.43.43 0 00.4.4h2.2a.43.43 0 00.4-.4V15a.22.22 0 01.2-.2h3.2a.43.43 0 00.4-.4v-1.8a.37.37 0 00-.4-.4M99.23 16.9a3.59 3.59 0 00-1.4-1 5.66 5.66 0 00-1.8-.3 6.45 6.45 0 00-2 .3 3.36 3.36 0 00-1.6 1 4.18 4.18 0 00-1.1 1.5 6.94 6.94 0 000 4.5 3.27 3.27 0 001.1 1.5 5.37 5.37 0 001.6 1 6.45 6.45 0 002 .3 5.85 5.85 0 002.2-.5 4.51 4.51 0 001.4-1 .64.64 0 000-.6l-1.3-1v.2c-.2-.1-.4-.1-.5.1a2.65 2.65 0 01-.6.5 2.35 2.35 0 01-2.6-.2 2.36 2.36 0 01-.7-1.6.22.22 0 01.2-.2h6a.43.43 0 00.4-.4v-.4a6.45 6.45 0 00-.3-2 6.93 6.93 0 00-1-1.7m-1.9 2.5H94a.22.22 0 01-.2-.2c0-.1.1-.3.1-.4a1 1 0 01.4-.5 2 2 0 011.5-.5 2.11 2.11 0 011.3.5c.263.276.437.624.5 1-.1 0-.2.1-.3.1M89.13 17.1a4.73 4.73 0 00-1.3-1.1 3.66 3.66 0 00-1.8-.4 5.08 5.08 0 00-1.7.3 1.8 1.8 0 00-.9.6h-.1a.1.1 0 01-.1-.1v-4.8a.43.43 0 00-.4-.4h-2a.43.43 0 00-.4.4v13.6a.43.43 0 00.4.4h1.8a.43.43 0 00.4-.4v-.4a.1.1 0 01.1-.1h.1l.2.2c.2.2.4.3.6.5.26.116.527.217.8.3.292.082.597.116.9.1a6.28 6.28 0 001.9-.3 4.51 4.51 0 001.4-1 3.77 3.77 0 00.9-1.5 7.85 7.85 0 000-4.3 3.46 3.46 0 00-.8-1.6m-2.3 5.6c-.955.9-2.445.9-3.4 0a3.17 3.17 0 01-.6-2 2.88 2.88 0 01.6-1.9 2.48 2.48 0 013.4 0 2.88 2.88 0 01.6 1.9 3.17 3.17 0 01-.6 2M148 11.3h-2a.43.43 0 00-.4.4v4.8a.1.1 0 01-.1.1h-.1l-.9-.6a4.67 4.67 0 00-1.7-.3 3.92 3.92 0 00-1.8.4 3.48 3.48 0 00-1.3 1.1 4.81 4.81 0 00-.8 1.6 7.85 7.85 0 000 4.3 3.77 3.77 0 00.9 1.5c.398.42.873.76 1.4 1a4 4 0 001.9.3 2.77 2.77 0 00.9-.1 6.89 6.89 0 00.8-.3 2.65 2.65 0 00.6-.5l.2-.2a.14.14 0 01.2 0v.4a.43.43 0 00.4.4h1.8a.43.43 0 00.4-.4V11.7a.43.43 0 00-.4-.4m-2.8 11.4c-.955.9-2.445.9-3.4 0a3.17 3.17 0 01-.6-2 2.88 2.88 0 01.6-1.9 2.48 2.48 0 013.4 0 2.88 2.88 0 01.6 1.9 3.17 3.17 0 01-.6 2M69.13 11.3a1.7 1.7 0 101.7 1.7 1.85 1.85 0 00-.5-1.2 2.08 2.08 0 00-1.2-.5M70 15.9h-2a.43.43 0 00-.4.4v9a.43.43 0 00.4.4h2a.43.43 0 00.4-.4v-9c.1-.2-.1-.4-.4-.4M137 15.9h-1.8a.43.43 0 00-.4.4v.4c0 .1-.1.1-.2.1h-.1l-.2-.2a4.23 4.23 0 00-.7-.5 3.18 3.18 0 00-.9-.3 4.1 4.1 0 00-1.1-.1 3.92 3.92 0 00-1.8.4 3.48 3.48 0 00-1.3 1.1 5.48 5.48 0 00-.8 1.5 7.5 7.5 0 000 4.2 3.77 3.77 0 00.9 1.5c.398.42.873.76 1.4 1a4 4 0 001.9.3 3.53 3.53 0 001.4-.3 2.36 2.36 0 00.9-.6l.1-.1h.1a.1.1 0 01.1.1v.5a2.27 2.27 0 01-.6 1.6 2.71 2.71 0 01-1.9.6 4.53 4.53 0 01-1.6-.3c-.4-.2-.7-.4-1.1-.6a.47.47 0 00-.6.1l-1.1 1.7c-.1.2-.1.5.1.6a4.55 4.55 0 001.9.8 9.86 9.86 0 002.4.3 5 5 0 004-1.4 5.52 5.52 0 001.3-4v-8.6c.1-.1-.1-.2-.3-.2m-2.4 5.9a1.79 1.79 0 01-.5.7 3 3 0 01-.7.5c-.583.2-1.217.2-1.8 0a1.79 1.79 0 01-.7-.5 1.79 1.79 0 01-.5-.7 3.59 3.59 0 01-.2-1.1 2.54 2.54 0 01.2-1.2c.107-.27.279-.51.5-.7.19-.221.43-.393.7-.5a2.77 2.77 0 011.8 0c.27.107.51.279.7.5.221.19.393.43.5.7a5 5 0 01.2 1.2 2 2 0 01-.2 1.1M55.83 16.9a2.19 2.19 0 00-1-.9 5.23 5.23 0 00-1.8-.3 3.75 3.75 0 00-1 .1c-.3.1-.5.2-.8.3a1.21 1.21 0 00-.5.5v.1h-.2v-4.9a.43.43 0 00-.4-.4h-2a.43.43 0 00-.4.4v13.4a.43.43 0 00.4.4h2a.43.43 0 00.4-.4v-5.6a1.45 1.45 0 01.2-.7 1.21 1.21 0 01.5-.5 2.92 2.92 0 01.9-.2 1.34 1.34 0 011.3.8c.1.2.1.5.2.8v5.4a.43.43 0 00.4.4h2a.43.43 0 00.4-.4V20a9.15 9.15 0 00-.1-1.7 3.36 3.36 0 00-.5-1.4M126.83 15.6h-.5a2.93 2.93 0 00-1.6.4 3 3 0 00-.8.8h-.1c-.1 0-.1 0-.1-.1v-.6a.43.43 0 00-.4-.4h-2a.43.43 0 00-.4.4v9a.43.43 0 00.4.4h2a.43.43 0 00.4-.4v-4a6.15 6.15 0 01.1-1.3c.006-.355.11-.7.3-1a1.34 1.34 0 01.7-.6 3.55 3.55 0 011-.2h1a.43.43 0 00.4-.4v-1.7c.1-.1-.1-.3-.4-.3M78 20.3a4.33 4.33 0 00-1.2-.5l-1.2-.3-.9-.3a.55.55 0 01-.3-.5.71.71 0 01.3-.6 1.45 1.45 0 01.7-.2 2.39 2.39 0 011.4.5c.188.1.412.1.6 0l1.2-1.2a.64.64 0 000-.6 3.29 3.29 0 00-1.3-.7 5.66 5.66 0 00-1.8-.3 5.9 5.9 0 00-1.4.2 2.73 2.73 0 00-1.2.6 2.84 2.84 0 00-.9 1 3.9 3.9 0 000 3c.248.348.552.652.9.9a4.33 4.33 0 001.2.5l1.2.3.9.3a.6.6 0 01.3.6c0 .2-.1.5-.4.5a2.77 2.77 0 01-.9.1 2 2 0 01-1.1-.3 2.65 2.65 0 01-.6-.5.64.64 0 00-.6 0l-1.2 1.4a.47.47 0 00.1.6c.411.33.889.57 1.4.7a6.45 6.45 0 002 .3 7.57 7.57 0 001.5-.1 7.84 7.84 0 001.4-.5 3.18 3.18 0 001-1 2.93 2.93 0 00.4-1.6 4 4 0 00-.3-1.5c-.5-.3-.8-.6-1.2-.8M65.93 15.9h-2a.43.43 0 00-.4.4v5.6a1.45 1.45 0 01-.2.7 1.21 1.21 0 01-.5.5 2.92 2.92 0 01-.9.2 1.08 1.08 0 01-.8-.2.92.92 0 01-.4-.6c-.1-.2-.1-.5-.2-.8v-5.4a.43.43 0 00-.4-.4h-2a.43.43 0 00-.4.4v5.2a9.15 9.15 0 00.1 1.7c.06.498.23.977.5 1.4.23.397.58.712 1 .9a5.23 5.23 0 001.8.3 2.77 2.77 0 00.9-.1c.3-.1.5-.2.8-.3a2.65 2.65 0 00.6-.5c0-.1.1-.1.1-.2h.1a.1.1 0 01.1.1v.4a.43.43 0 00.4.4H66a.43.43 0 00.4-.4v-9a.55.55 0 00-.5-.3M108.73 23.4h-4.4a.1.1 0 01-.1-.1v-.1l4.1-3.9.2-.2a.71.71 0 00.3-.6v-2a.43.43 0 00-.4-.4h-7.1a.43.43 0 00-.4.4v1.4a.43.43 0 00.4.4h3.9a.1.1 0 01.1.1v.1l-3.7 3.6-.5.5-.1.1a1.07 1.07 0 00-.2.6v1.9a.43.43 0 00.4.4h7.4a.43.43 0 00.4-.4v-1.4c.2-.2 0-.4-.3-.4M163.23 11.1h-.7a.43.43 0 00-.4.4v13.7a.43.43 0 00.4.4h.6a.43.43 0 00.4-.4V11.5c.1-.2-.1-.4-.3-.4M159.93 16.7a2.59 2.59 0 00-1.1-.7 4 4 0 00-1.5-.3 4.14 4.14 0 00-1.9.5 3 3 0 00-.7.5l-.1.1v.1h-.1c-.1 0-.1 0-.1-.1v-.6a.43.43 0 00-.4-.4h-.7a.43.43 0 00-.4.4v9a.43.43 0 00.4.4h.7a.43.43 0 00.4-.4v-4.7a3.4 3.4 0 01.2-1.4 3.7 3.7 0 01.5-1.1 2.18 2.18 0 01.9-.7 2.74 2.74 0 011.3-.2 1.86 1.86 0 011.6.7 3.74 3.74 0 01.5 1.8v5.6a.43.43 0 00.4.4h.7a.43.43 0 00.4-.4v-5.9a7.72 7.72 0 00-.2-1.5 10.47 10.47 0 00-.8-1.1M150.63 23.7a.78.78 0 00-.7.3 1.09 1.09 0 000 1.5 1 1 0 001.5 0 1.09 1.09 0 000-1.5 1.6 1.6 0 00-.8-.3"/></g></g></svg>
